<?xml version="1.0" encoding="utf-8"?>
<svg width="25" height="31" viewBox="0 0 25 31" fill="none" xmlns="http://www.w3.org/2000/svg">
  <defs>
    <clipPath id="clip_path_1">
      <rect width="25" height="31" />
    </clipPath>
  </defs>
  <path d="M8.14062 29.7984Q10.1797 30.6266 12.5469 30.6266Q14.8828 30.6266 16.9141 29.7984Q18.9453 28.9625 20.4453 27.4469Q21.9531 25.9234 22.7969 23.8297Q23.6484 21.7281 23.6484 19.1969Q23.6484 16.6734 22.7969 14.5797Q21.9531 12.4781 20.4453 10.9625Q18.9453 9.43906 16.9141 8.61094Q14.8828 7.775 12.5469 7.775Q10.1797 7.775 8.14062 8.61094Q6.10938 9.43906 4.58594 10.9625Q3.07031 12.4781 2.21875 14.5797Q1.375 16.6734 1.375 19.1969Q1.375 21.7281 2.21875 23.8297Q3.07031 25.9234 4.58594 27.4469Q6.10938 28.9625 8.14062 29.7984ZM16.8594 27.2672Q14.9453 28.3844 12.5469 28.3844Q10.1094 28.3844 8.17188 27.2672Q6.24219 26.1422 5.11719 24.0797Q4 22.0172 4 19.1969Q4 16.3531 5.11719 14.2906Q6.24219 12.2203 8.17188 11.1188Q10.1094 10.0172 12.5469 10.0172Q14.9453 10.0172 16.8594 11.1188Q18.7812 12.2203 19.8984 14.2906Q21.0234 16.3531 21.0234 19.1969Q21.0234 22.0172 19.8984 24.0797Q18.7812 26.1422 16.8594 27.2672Z" fill="#3B82F6" clip-path="url(#clip_path_1)" />
</svg>