<svg width="687" height="687" viewBox="0 0 687 687" fill="none" xmlns="http://www.w3.org/2000/svg">
<rect width="687" height="687" rx="343.5" fill="url(#paint0_linear_2_16)"/>
<path d="M341.804 111.002C342.831 111.007 343.859 111.012 344.917 111.017C363.827 111.313 386.264 115.129 400.5 128.583C402.431 130.902 402.431 130.902 402.431 132.962C403.103 133.126 403.774 133.289 404.466 133.457C413.57 135.889 418.568 139.942 423.593 147.875C430.733 160.334 432.686 171.032 432.616 185.256C432.615 185.961 432.615 186.666 432.614 187.393C432.59 198.622 431.698 209.474 429.579 220.51C428.967 223.941 428.577 227.39 428.175 230.851C428.727 230.32 429.279 229.789 429.848 229.241C432.294 227.76 432.294 227.76 435.512 227.889C438.473 228.79 438.473 228.79 440.532 231.882C440.806 234.86 440.806 234.86 440.79 238.322C440.795 239.453 440.8 240.585 440.806 241.751C440.509 245.581 439.608 248.825 438.473 252.49C438.205 253.623 437.936 254.756 437.66 255.923C435.81 263.63 433.364 270.796 430.17 278.057C429.82 278.864 429.469 279.67 429.108 280.501C428.767 281.253 428.426 282.004 428.074 282.778C427.772 283.446 427.469 284.114 427.157 284.802C426.116 286.493 426.116 286.493 423.026 288.554C420.922 288.755 420.922 288.755 418.714 288.683C417.419 288.641 416.123 288.598 414.788 288.554C414.711 289.553 414.634 290.552 414.555 291.581C413.349 304.723 410.851 317.369 401.53 327.195C397.073 332.231 396.363 335.995 396.67 342.671C396.834 344.902 397.054 347.123 397.282 349.348C397.424 351.043 397.565 352.737 397.705 354.432C399.341 376.062 399.341 376.062 410.878 393.547C414.774 396.567 418.868 399.258 423.026 401.899C423.633 402.293 424.24 402.687 424.865 403.093C446.064 416.764 468.466 427.053 492.686 433.937C515.978 440.672 536.351 450.474 548.713 472.226C557.257 488.036 560.244 505.678 559.985 523.488C548.001 530.248 535.637 535.789 522.913 541.005C521.763 541.481 520.612 541.956 519.427 542.447C509.599 546.457 499.652 549.975 489.575 553.305C488.364 553.706 488.364 553.706 487.128 554.115C428.102 573.623 364.569 581.993 302.544 573.978C301.427 573.845 300.31 573.712 299.16 573.575C281.572 571.476 264.339 568.39 247.08 564.417C244.176 563.749 241.267 563.101 238.357 562.458C155.422 543.816 155.422 543.816 127.485 523.488C126.937 521.472 126.937 521.472 127.082 519.217C127.129 518.395 127.177 517.574 127.225 516.727C127.623 512.877 128.103 509.075 128.772 505.262C128.911 504.461 129.05 503.66 129.193 502.835C132.036 487.108 136.838 473.109 147.05 460.633C147.793 459.613 148.537 458.592 149.303 457.541C161.986 442.667 183.154 436.774 201.228 431.652C212.039 428.574 222.327 424.898 232.456 419.996C233.563 419.461 234.671 418.927 235.812 418.377C246.043 413.339 255.694 407.581 265.218 401.321C267.322 399.973 269.451 398.729 271.631 397.512C279.928 392.71 283.387 387.493 285.987 378.49C286.366 377.021 286.737 375.551 287.098 374.078C287.363 373.058 287.363 373.058 287.635 372.017C290.733 359.666 294.542 340.21 288.522 328.628C286.443 326.394 286.443 326.394 284.117 324.55C280.023 320.788 278.592 315.343 276.8 310.193C276.439 309.167 276.078 308.142 275.706 307.086C274.785 304.151 274.124 301.304 273.582 298.279C273.409 297.342 273.237 296.406 273.059 295.441C272.693 292.762 272.613 290.224 272.681 287.524C272.001 287.864 271.322 288.204 270.621 288.554C267.725 289.005 267.725 289.005 264.443 288.554C254.832 280.11 249.768 260.849 247.967 248.368C247.804 245.383 247.776 242.406 247.774 239.417C247.761 238.622 247.748 237.827 247.735 237.008C247.73 234.954 247.84 232.901 247.967 230.851C250.026 228.79 250.026 228.79 253.63 228.533C257.235 228.79 257.235 228.79 259.294 230.851C258.732 225.417 258.044 220.026 257.235 214.622C253.626 189.319 252.112 165.537 267.532 143.911C271.456 138.908 275.709 134.819 281.949 132.962C282.968 132.962 283.988 132.962 285.038 132.962C285.251 132.389 285.463 131.815 285.682 131.224C291.516 121.405 305.15 117.382 315.42 114.27C324.252 112.098 332.704 110.948 341.804 111.002Z" fill="#364153"/>
<defs>
<linearGradient id="paint0_linear_2_16" x1="343.5" y1="0" x2="343.5" y2="687" gradientUnits="userSpaceOnUse">
<stop stop-color="#1D293D"/>
<stop offset="1" stop-color="#030712"/>
</linearGradient>
</defs>
</svg>
